#!OML:ASF H:\Terrain\Patient Classification 1\PLAYGROUND\JustinFriday\JustinFriday.ASF
:FULLY-SPECIFIED
:DEGREES
2440
root 14.4615 26.1291 39.9518 -208.566 3.24579 -170.22
lowerback 40.9197 -8.388 -0.0536414
upperback 4.60885 -6.85967 6.52354
thorax -13.8632 -1.82066 10.1526
lowerneck -8.93652 2.27857 -33.9186
upperneck -4.53544 7.02009 20.8113
head -1.77653 4.30554 12.4066
rclavicle 2.57426e-014 3.18055e-014
rhumerus 94.4592 25.5628 -53.661
rradius 32.1296
rwrist -357.224
rhand -16.4595 -29.1124
rfingers 7.12502
rthumb 9.75684 -58.8664
lclavicle 2.57426e-014 3.18055e-014
lhumerus 56.5267 13.5899 35.1971
lradius 28.9591
lwrist -11.1934
lhand -32.6753 -7.61284
lfingers 7.12502
lthumb -5.90078 22.285
rfemur -26.4883 -8.27922 17.3963
rtibia 90.0265
rfoot 15.8746 -11.2715
rtoes 11.007
lfemur -34.8165 9.22162 14.7992
ltibia 98.7902
lfoot -161.216 168.63
ltoes -2.74379
2441
root 14.4504 26.1469 39.9415 -208.069 2.77942 -170.098
lowerback 40.8116 -8.59524 0.180536
upperback 4.42182 -7.06494 6.4951
thorax -14.0398 -1.92562 10.1052
lowerneck -9.03877 2.26923 -33.7872
upperneck -4.27307 6.98981 20.7493
head -1.66928 4.2746 12.3635
rclavicle -9.58639e-014 1.68569e-013
rhumerus 94.7173 25.4531 -54.6523
rradius 31.4191
rwrist -356.742
rhand -14.8699 -27.944
rfingers 7.12502
rthumb 11.2902 -57.6202
lclavicle -9.58639e-014 1.68569e-013
lhumerus 56.6262 13.3928 34.2657
lradius 28.5381
lwrist -11.57
lhand -35.5763 -7.59061
lfingers 7.12502
lthumb -8.70094 22.2101
rfemur -26.7995 -8.9753 17.2288
rtibia 90.6701
rfoot 16.159 -10.2635
rtoes 9.63491
lfemur -35.438 8.72753 14.5094
ltibia 99.2988
lfoot -160.777 168.709
ltoes -0.750709
2442
root 14.4584 26.1532 39.9284 -207.739 2.81707 -170.11
lowerback 40.9191 -8.45837 0.0234734
upperback 4.32588 -6.97052 6.54653
thorax -14.1858 -1.87744 10.2261
lowerneck -8.86458 2.29636 -33.6996
upperneck -4.32712 6.953 20.6441
head -1.69733 4.24631 12.3029
rclavicle 8.48314e-014 -1.06549e-013
rhumerus 94.9492 25.2384 -55.5447
rradius 30.8471
rwrist -355.821
rhand -12.6152 -27.4118
rfingers 7.12502
rthumb 13.4641 -56.9567
lclavicle 8.48314e-014 -1.06549e-013
lhumerus 56.9376 13.4712 33.7914
lradius 28.5766
lwrist -10.2224
lhand -35.395 -7.69888
lfingers 7.12502
lthumb -8.52595 22.109
rfemur -27.1228 -9.09681 17.2937
rtibia 91.3646
rfoot 16.0268 -10.0113
rtoes 10.2206
lfemur -35.5355 9.36917 14.8247
ltibia 99.7472
lfoot -161.547 165.717
ltoes -5.00514
2443
root 14.4687 26.1585 39.9189 -207.568 3.25533 -170.272
lowerback 41.3444 -8.08947 -0.364388
upperback 4.26935 -6.65164 6.62244
thorax -14.4075 -1.70895 10.4146
lowerneck -8.77729 2.30688 -33.781
upperneck -4.40659 6.95409 20.6811
head -1.73919 4.24865 12.3285
rclavicle -1.07642e-013 4.45278e-014
rhumerus 95.5165 24.811 -55.6077
rradius 30.4093
rwrist -355.899
rhand -10.8873 -27.1845
rfingers 7.12502
rthumb 15.129 -56.6116
lclavicle -1.07642e-013 4.45278e-014
lhumerus 57.2339 13.5212 33.3012
lradius 28.5368
lwrist -9.34057
lhand -35.5154 -7.76157
lfingers 7.12502
lthumb -8.64221 22.0415
rfemur -27.3115 -8.79973 17.3959
rtibia 92.0824
rfoot 15.2169 -10.8638
rtoes 13.0438
lfemur -35.1336 10.1788 15.2716
ltibia 100.132
lfoot -159.207 168.944
ltoes 9.61804
2444
root 14.4662 26.1818 39.9053 -207.194 3.1153 -170.149
lowerback 41.4835 -8.1361 -0.272289
upperback 4.13476 -6.66584 6.66511
thorax -14.6177 -1.71007 10.4492
lowerneck -8.79788 2.31955 -33.5999
upperneck -4.43351 6.95631 20.4386
head -1.73055 4.24778 12.2025
rclavicle -1.29061e-013 1.74931e-013
rhumerus 95.9228 24.5524 -56.1389
rradius 29.9612
rwrist -355.617
rhand -9.15018 -27.0293
rfingers 7.12502
rthumb 16.8019 -56.3224
lclavicle -1.29061e-013 1.74931e-013
lhumerus 57.3822 13.4337 32.3405
lradius 28.5556
lwrist -7.91298
lhand -35.284 -7.79734
lfingers 7.12502
lthumb -8.41889 22.0149
rfemur -27.5109 -8.87483 17.5368
rtibia 92.7086
rfoot 14.1636 -11.8157
rtoes 17.3494
lfemur -35.3215 10.035 15.2938
ltibia 100.454
lfoot -158.722 168.848
ltoes 11.5994
2445
root 14.4628 26.1812 39.8908 -206.892 3.02641 -170.107
lowerback 41.6853 -8.11411 -0.293764
upperback 3.97759 -6.64875 6.70766
thorax -14.8717 -1.69173 10.5378
lowerneck -8.69614 2.42075 -33.3658
upperneck -4.30727 7.00058 20.1378
head -1.70707 4.24713 12.0385
rclavicle 1.69464e-014 -7.95139e-015
rhumerus 96.4488 24.2536 -56.1959
rradius 29.5524
rwrist -355.765
rhand -7.5342 -27.1273
rfingers 7.12502
rthumb 18.357 -56.2811
lclavicle 1.69464e-014 -7.95139e-015
lhumerus 57.3639 13.2686 31.1042
lradius 28.897
lwrist -5.56281
lhand -33.8256 -7.3033
lfingers 7.12502
lthumb -7.01124 22.5606
rfemur -27.828 -9.05056 17.5096
rtibia 93.4263
rfoot 14.6007 -11.604
rtoes 13.8298
lfemur -35.536 10.6343 15.5072
ltibia 100.917
lfoot -159.779 165.563
ltoes 5.86956
2446
root 14.4656 26.2041 39.8814 -206.573 3.02577 -170.085
lowerback 41.9012 -8.01786 -0.379721
upperback 3.86356 -6.56673 6.73817
thorax -15.0853 -1.64384 10.613
lowerneck -8.71855 2.43512 -33.2401
upperneck -4.05262 6.97502 20.0727
head -1.61694 4.21431 11.9931
rclavicle 4.94974e-014 2.06736e-014
rhumerus 96.51 24.2626 -57.5848
rradius 29.0437
rwrist -354.835
rhand -5.69447 -27.1049
rfingers 7.12502
rthumb 20.126 -56.0825
lclavicle 4.94974e-014 2.06736e-014
lhumerus 57.8088 13.4682 30.757
lradius 29.3811
lwrist -3.32695
lhand -30.65 -6.14425
lfingers 7.12502
lthumb -3.94519 23.799
rfemur -27.9156 -9.08779 17.6028
rtibia 93.8606
rfoot 14.4165 -11.4919
rtoes 13.3884
lfemur -35.5885 10.5982 15.5353
ltibia 101.259
lfoot -157.985 169.183
ltoes 19.5779
2447
root 14.4604 26.1972 39.8643 -206.158 2.84538 -169.84
lowerback 42.013 -8.13319 -0.161409
upperback 3.74789 -6.59574 6.79329
thorax -15.2726 -1.65445 10.5979
lowerneck -8.98472 2.33949 -33.1295
upperneck -3.71429 6.88192 19.9833
head -1.44331 4.15738 11.9523
rclavicle 9.54166e-015 3.02153e-014
rhumerus 96.4701 24.31 -59.1412
rradius 28.7079
rwrist -353.798
rhand -3.80999 -27.2028
rfingers 7.12502
rthumb 21.9364 -55.9791
lclavicle 9.54166e-015 3.02153e-014
lhumerus 58.5545 13.9427 31.1468
lradius 29.4709
lwrist -2.29442
lhand -27.9998 -5.65221
lfingers 7.12502
lthumb -1.3857 24.323
rfemur -28.1684 -9.48037 17.7486
rtibia 94.3924
rfoot 13.9662 -11.3138
rtoes 14.0471
lfemur -36.1084 10.8291 15.8058
ltibia 101.799
lfoot -157.514 169.21
ltoes 21.5875
2448
root 14.4503 26.1899 39.848 -205.77 2.66814 -169.49
lowerback 42.1603 -8.33114 0.199743
upperback 3.59095 -6.63989 6.90042
thorax -15.528 -1.66993 10.5824
lowerneck -9.09373 2.31099 -33.1728
upperneck -3.5149 6.85713 19.9186
head -1.36134 4.13709 11.9384
rclavicle 4.42793e-014 7.63333e-014
rhumerus 96.4554 24.4069 -60.3854
rradius 28.491
rwrist -353.024
rhand -1.82679 -27.3575
rfingers 7.12502
rthumb 23.8395 -55.8982
lclavicle 4.42793e-014 7.63333e-014
lhumerus 59.1154 14.3162 31.3321
lradius 29.3312
lwrist -1.50143
lhand -26.7151 -5.73738
lfingers 7.12502
lthumb -0.144908 24.2423
rfemur -28.4807 -9.9808 17.9547
rtibia 94.9611
rfoot 13.873 -10.8931
rtoes 13.8814
lfemur -36.598 11.3691 16.2729
ltibia 102.277
lfoot -157.068 168.943
ltoes 23.1623
2449
root 14.453 26.2198 39.8353 -205.509 2.69093 -169.402
lowerback 42.4748 -8.27264 0.144526
upperback 3.48755 -6.55465 6.98184
thorax -15.7621 -1.61167 10.7036
lowerneck -9.18259 2.3311 -33.1932
upperneck -3.33448 6.89297 19.8816
head -1.30476 4.14701 11.9286
rclavicle 2.98674e-014 -1.59028e-014
rhumerus 96.5636 24.4581 -61.5625
rradius 28.218
rwrist -352.361
rhand 0.20423 -27.7076
rfingers 7.12502
rthumb 25.786 -55.9801
lclavicle 2.98674e-014 -1.59028e-014
lhumerus 59.515 14.5937 31.1089
lradius 29.1486
lwrist -0.773873
lhand -26.1501 -6.12999
lfingers 7.12502
lthumb 0.400756 23.8494
rfemur -28.5546 -10.0671 18.1186
rtibia 95.3486
rfoot 14.0032 -10.4222
rtoes 13.0988
lfemur -36.4333 11.3405 16.4125
ltibia 102.416
lfoot -156.89 169.097
ltoes 24.5326
2450
root 14.4542 26.2381 39.823 -205.192 2.59261 -169.574
lowerback 42.7639 -8.13819 -0.124044
upperback 3.36594 -6.52088 6.97646
thorax -15.9897 -1.57602 10.8637
lowerneck -9.34781 2.32214 -33.102
upperneck -3.01906 6.88545 19.76
head -1.17829 4.1277 11.8722
rclavicle -1.88845e-014 1.08139e-013
rhumerus 96.8211 24.3233 -62.3467
rradius 28.0351
rwrist -352.101
rhand 2.41253 -28.3533
rfingers 7.12502
rthumb 27.899 -56.3011
lclavicle -1.88845e-014 1.08139e-013
lhumerus 59.9747 14.9132 31.0053
lradius 28.8374
lwrist -0.58378
lhand -25.2007 -6.37124
lfingers 7.12502
lthumb 1.31777 23.6044
rfemur -28.7397 -10.2464 17.9142
rtibia 95.744
rfoot 13.5271 -10.331
rtoes 10.0453
lfemur -36.4479 11.7981 16.3359
ltibia 102.631
lfoot -156.597 169.083
ltoes 24.3793
